<svg id="레이어_1" data-name="레이어 1" xmlns="http://www.w3.org/2000/svg" viewBox="0 0 977 938.5"><defs><style>.cls-1{fill:#373942;}.cls-1,.cls-2,.cls-3,.cls-4,.cls-6,.cls-7{stroke:#fff;}.cls-1,.cls-2,.cls-3,.cls-4,.cls-5,.cls-6,.cls-7,.cls-8{stroke-miterlimit:10;stroke-width:5px;}.cls-2{fill:#c3cbe4;}.cls-3{fill:#f3d0bb;}.cls-4{fill:#f8dac7;}.cls-5,.cls-8{fill:none;stroke:#000;stroke-linecap:round;}.cls-6{fill:#211e1d;}.cls-7{fill:#f6cfbd;}.cls-8{opacity:0.86;}</style></defs><path class="cls-1" d="M602.67,489.7c14.6,1.35,38.11,18.08,45.07,23.26a40.84,40.84,0,0,1,3.71,3.1c8.41,8,45.55,44.62,59,82.88,3.21,9.11,89,19.39,145.11,54.3,49.69,30.94,126.89,176.13,130.39,272,.69,18.72-22.16,34.1-50.36,34.1H65.5c-15.92,0-51.56-16.87-51.5-55.27.09-61.55,45.57-211.52,118.77-260.55.69-.46,1.36-.93,2-1.43,12.73-9.63,148.56-111.95,188.69-124.56,1.37-.43,2.68-.92,4-1.43l143-55.5c16.85-6.54,37.88-6,53.95,1.32C548.73,473,584.23,488,602.67,489.7Z" transform="translate(-11.5 -23.29)"/><path class="cls-1" d="M153.32,663.38s43.28,41.83,103.43,94.1C320,812.41,419.87,826.12,419.08,879l23.13-419s-87.12-25.8-163.55,53.12l-107,101L138.1,640.06a5.13,5.13,0,0,0-.49,7.72Z" transform="translate(-11.5 -23.29)"/><path class="cls-2" d="M566.92,649.86S492.7,632.43,453.55,674.5c0,0-53.84,41-94.78-53,0,0-20.5,26.33-22.72,32.42-6.92,19-40.09,61.89-39.26,70.83,4.11,44.27,44.43,84.65,80,107.44C415.33,856.9,425.57,906,425.57,906s-14-42.07,13.3-75,103.35-35.13,156.24-94.64C625,702.65,571.65,685.89,566.92,649.86Z" transform="translate(-11.5 -23.29)"/><path class="cls-3" d="M386.52,534.34,563,491.42c7-1.71,13.8,3.27,12.91,9.49-4.53,31.67-20.31,111.94-9.53,151.1,1.07,3.9,1.41,9.11-2.74,11-20.26,9-74.2,32.52-108,34.29-37.78,2-102.86,10.62-120.58-35.39-.73-1.89,7.4-18.63,8.36-20.43,7.43-14,30-77.82,35.9-100.55A9.48,9.48,0,0,1,386.52,534.34Z" transform="translate(-11.5 -23.29)"/><path class="cls-4" d="M300.31,321.37s7.59,19.85,2.63,34.45c0,0-12.37,47.31,4.81,84.23C336,500.79,327.43,481.12,345,512.9c4.76,8.62,17.76,30.07,35.87,37.66s86-13.31,127.64-26.85c31.22-10.17,84.38-12.85,94.6-91.1l34.36-137.14L577.1,123.41s-229.49,6.13-224.24,0S270.53,235.52,267,241.66,300.31,321.37,300.31,321.37Z" transform="translate(-11.5 -23.29)"/><path class="cls-5" d="M296.75,299.77s53.84-24.22,66.9,32.19c2.41,10.4,4.81,17.38-4,57.37,0,0-17.15,44.17,14.77,41.83,14.89-1.1,6-8.73,30.94-5.26,6.58.92,26.35-5.33,9.35-30.07" transform="translate(-11.5 -23.29)"/><path d="M351.38,335.56c-4.82-5.84-29.53-22.51-41-3.7-2,3.36-3.37,8.44-.1,9.59,3.77,1.32,12.1,2.36,19.82,1.91l22.58-1.9C354,341.14,353.12,337.67,351.38,335.56Z" transform="translate(-11.5 -23.29)"/><path class="cls-5" d="M397.26,298.24s63.73-55.69,142.34-19" transform="translate(-11.5 -23.29)"/><path class="cls-6" d="M372.08,169.25s5.25,179.57,140.15,130.52c0,0,19.27,4.82,70.51,3.06,0,0-4.38,34.6,0,63.51s37.81-70.08,37.81-70.08,20.88,7.89,26.57-14c0,0,26.28-16.64,36.35,18,0,0,28-30.22,21.9-80.59,0,0,15.33-25.4-8.76-79.27,0,0-5.25-30.66-35-55.18,0,0-11.82-81-162.92-53.81,0,0-104.24-27.3-196.65,58.1s-76.2,182.28,2.41,251.31c0,0,33.22-34.29,12.89-110.06-10.06-37.47,28.76-72.22,46.9-90.36C364.2,140.35,363.32,159.62,372.08,169.25Z" transform="translate(-11.5 -23.29)"/><path class="cls-7" d="M619.32,341.47s13.09-66.82,44.06-62a25,25,0,0,1,4.76,1.28c34.39,13,0,86,0,86s-41.21,59.89-63,41.91c-.85-.71-1.66-3.25-1.66-3.25S611.15,368.88,619.32,341.47Z" transform="translate(-11.5 -23.29)"/><path d="M419.09,336.11c.76-7.58,6.31-33.72,64.21-12.27,3.7,1.37,1.22,5.4.37,5.93-7.14,4.49-27.76,12.61-62,9.84C419.53,339.44,419,337.09,419.09,336.11Z" transform="translate(-11.5 -23.29)"/><path class="cls-8" d="M344.72,466.53S343.64,468,358,474.88c10.74,5.16,14.69,6.23,53.87,4.36,9.68-.47,42.18-7.81,50.92-19.46" transform="translate(-11.5 -23.29)"/></svg>